# xmcd CD database file
#
# Track frame offsets:
#	150
#	29370
#	52100
#	77995
#	97190
#	116770
#	138690
#	159592
#	180217
#	198525
#	220470
#	243190
#
# Disc length: 3612 seconds
#
# Revision: 1
# Processed by: cddbd v1.5.2PL0 Copyright (c) Steve Scherf et al.
# Submitted via: CDex 1.70beta3
#
DISCID=b00e1a0c
DTITLE=中島愛 - Thank You
DYEAR=2014
DGENRE=J-Pop
TTITLE0=愛の重力
TTITLE1=Carry Out!
TTITLE2=マーブル
TTITLE3=あの日の海
TTITLE4=Wish
TTITLE5=風色のフィルム
TTITLE6=Mamegu A Go! Go!
TTITLE7=Megu2 Magic
TTITLE8=そんなこと裏のまた裏話でしょ?
TTITLE9=ありがとう
TTITLE10=Flower in Green
TTITLE11=とうめいにんげん
EXTD=YEAR: 2014
EXTT0=
EXTT1=
EXTT2=
EXTT3=
EXTT4=
EXTT5=
EXTT6=
EXTT7=
EXTT8=
EXTT9=
EXTT10=
EXTT11=
PLAYORDER=
